<svg width="23" height="25" viewBox="0 0 23 25" fill="none" xmlns="http://www.w3.org/2000/svg">
<path fill-rule="evenodd" clip-rule="evenodd" d="M4.39576 0.349998H18.6045C18.8629 0.349998 19.0717 0.558827 19.0717 0.817234C19.0717 1.14102 19.0644 1.48062 19.0507 1.83289C21.0999 1.75801 23.0531 1.88773 22.5534 5.61073C22.2781 7.65471 21.1875 9.52573 19.7775 10.7672C18.6036 11.7997 17.2694 12.3408 16.1147 12.1752C15.3268 13.2299 14.3534 14.0293 13.1625 14.4143V16.6502C14.0843 16.9582 14.8025 17.5467 14.9723 18.42C15.5978 18.6088 16.0439 19.1899 16.0439 19.8575V21.7591C16.74 21.872 17.2663 22.4816 17.2663 23.1956V24.1839C17.2663 24.4423 17.0574 24.6511 16.799 24.6511L6.26904 24.649C6.01064 24.649 5.8018 24.4402 5.8018 24.1818C5.8018 23.3739 5.68579 22.7094 6.22894 22.1663L6.23 22.1673C6.4209 21.9617 6.73414 21.8056 7.02418 21.7581V19.8565C7.02418 19.4452 7.19293 19.0697 7.46609 18.7965L7.46503 18.7955C7.63905 18.6215 7.85526 18.4896 8.09678 18.4179C8.26658 17.5446 8.98483 16.9572 9.90556 16.6481V14.4333C8.68319 14.0568 7.68862 13.2468 6.88588 12.1731C5.73101 12.3387 4.3968 11.7987 3.22306 10.7651C1.81398 9.52373 0.722401 7.65282 0.44719 5.60865C-0.0537951 1.88562 1.90055 1.75683 3.9499 1.83081C3.93514 1.47854 3.92881 1.13894 3.92881 0.815151C3.92881 0.558862 4.13764 0.350023 4.39604 0.350023L4.39576 0.349998ZM18.9957 2.76734C18.788 5.52323 18.1309 8.84126 16.7113 11.2691C19.0031 11.1046 21.2748 8.11658 21.6283 5.48732C22.0227 2.56268 20.5999 2.70821 18.9957 2.76734ZM6.28792 11.268C4.86936 8.84223 4.21124 5.51999 4.00347 2.76626C2.3993 2.70719 0.977585 2.5627 1.36992 5.48516C1.61355 7.30028 2.58597 8.96141 3.83894 10.0646C4.64473 10.7744 5.52117 11.2132 6.28792 11.268ZM12.2268 14.622L10.8389 14.6304V16.4402H12.2268V14.622ZM13.9671 18.3566C13.2942 16.9908 9.77478 16.9908 9.10086 18.3566H13.9671ZM6.7362 23.7156H16.3317C16.3317 23.0089 16.4045 22.6704 15.5766 22.6746H7.25733C7.11389 22.6746 6.98417 22.7326 6.88924 22.8264L6.89029 22.8275C6.67935 23.0384 6.7362 23.3569 6.7362 23.7156ZM7.95857 21.7401H15.1082V19.8575C15.1082 19.5453 14.854 19.2911 14.5418 19.2911H8.52484C8.3698 19.2911 8.22846 19.3544 8.12511 19.4578L8.12405 19.4567L7.95847 19.8575L7.95857 21.7401ZM18.1322 1.28439H4.86842C4.94436 5.08329 6.19309 13.7338 11.5002 13.7338C16.8072 13.7338 18.0563 5.08329 18.1322 1.28439Z" fill="#324C3D"/>
</svg>
