<svg width="19" height="19" viewBox="0 0 19 19" fill="none" xmlns="http://www.w3.org/2000/svg">
<path d="M18.013 18.3171V4.63486H16.4915V5.24345C16.4915 5.57744 16.2206 5.85204 15.8829 5.85204C15.5489 5.85204 15.2743 5.58114 15.2743 5.24345V4.63486H13.7528V7.36992H11.927V3.11354H13.1442V0.074295H11.6227V0.682884C11.6227 1.01687 11.3518 1.29147 11.0141 1.29147C10.6801 1.29147 10.4055 1.02057 10.4055 0.682884V0.074295H8.57975V0.682884C8.57975 1.01687 8.30885 1.29147 7.97116 1.29147C7.63718 1.29147 7.36258 1.02057 7.36258 0.682884V0.074295H5.84109V3.11354H7.05827V7.36992H5.23249V4.63486H3.711V5.24345C3.711 5.57744 3.4401 5.85204 3.10241 5.85204C2.76843 5.85204 2.49382 5.58114 2.49382 5.24345V4.63486H0.972343V18.3171H0.0742886V18.9257H18.9259V18.3171H18.013ZM6.46076 2.50478V0.682713H6.76506C6.76506 1.3544 7.31057 1.89989 7.98224 1.89989C8.65393 1.89989 9.19942 1.35438 9.19942 0.682713H9.80801C9.80801 1.3544 10.3535 1.89989 11.0252 1.89989C11.6969 1.89989 12.2424 1.35438 12.2424 0.682713H12.5467V2.5085H6.46078L6.46076 2.50478ZM11.3257 3.11336V7.36974H7.6779V3.11336H11.3257ZM1.59562 5.24345H1.89992C1.89992 5.91514 2.44543 6.46063 3.1171 6.46063C3.78877 6.46063 4.33428 5.91512 4.33428 5.24345H4.63858V7.37355H1.59554L1.59562 5.24345ZM11.9307 18.3172H7.06933V15.2779C7.06933 13.9383 8.16035 12.8473 9.5 12.8473C10.8397 12.8473 11.9307 13.9383 11.9307 15.2779V18.3172ZM17.4044 18.3172H12.5394V15.2779C12.5394 13.6006 11.1738 12.2387 9.50019 12.2387C7.82285 12.2387 6.46095 13.6043 6.46095 15.2779V18.3172H1.596V7.9785H17.4046L17.4044 18.3172ZM17.4044 7.36994H14.3651V5.23984H14.6694C14.6694 5.91153 15.215 6.45702 15.8866 6.45702C16.5583 6.45702 17.1038 5.91151 17.1038 5.23984H17.4081V7.36994H17.4044Z" fill="#324C3D"/>
<path d="M4.93924 8.89143H2.50496V11.3221H4.93563V8.89143H4.93924ZM4.33065 10.7172H3.11347V9.50004H4.33065V10.7172Z" fill="#324C3D"/>
<path d="M10.7171 8.89143H8.28647V11.3221H10.7171V8.89143ZM10.1085 10.7172H8.89137V9.50004H10.1085V10.7172Z" fill="#324C3D"/>
<path d="M16.495 8.89143H14.0644V11.3221H16.495V8.89143ZM15.8864 10.7172H14.6693V9.50004H15.8864V10.7172Z" fill="#324C3D"/>
</svg>
