<svg width="25" height="17" viewBox="0 0 25 17" fill="none" xmlns="http://www.w3.org/2000/svg">
<path d="M10.3428 3.78704C10.4013 3.78704 10.4541 3.7597 10.4883 3.71771L11.1328 3.27141V4.47063C11.1328 4.57415 11.2168 4.65813 11.3203 4.65813H13.6797C13.7832 4.65813 13.8672 4.57415 13.8672 4.47063V3.29778L14.5547 3.74798C14.6416 3.80462 14.7578 3.78021 14.8144 3.69427C14.8711 3.60736 14.8467 3.49115 14.7597 3.4345L13.6543 2.7099L12.6172 1.95892C12.584 1.93451 12.5449 1.92279 12.5058 1.92376H12.5C12.4609 1.92376 12.4238 1.93646 12.3935 1.95696C12.3721 1.96282 12.3515 1.97161 12.332 1.98431L10.2353 3.43744C10.1846 3.47259 10.1543 3.53021 10.1543 3.59173V3.60052C10.1543 3.70404 10.2383 3.78802 10.3418 3.78802L10.3428 3.78704ZM11.5078 3.02142L12.3125 2.47161V4.28314H11.5078V3.02142ZM13.4922 3.05559V4.28315H12.6875V2.52434L13.4414 3.0185L13.4922 3.05463L13.4922 3.05559Z" fill="#324C3D"/>
<path d="M16.087 3.77829C16.1222 3.77829 16.1583 3.76852 16.1895 3.74802L16.9024 3.28122V4.47067C16.9024 4.57418 16.9864 4.65817 17.0899 4.65817H19.4493C19.5528 4.65817 19.6368 4.57418 19.6368 4.47067V3.28902L20.295 3.74507C20.38 3.80366 20.4972 3.78315 20.5558 3.69819C20.6144 3.61323 20.5939 3.49605 20.5089 3.43744L18.6212 2.12884L18.3868 1.95892C18.3536 1.93451 18.3146 1.92279 18.2755 1.92376H18.2696C18.2159 1.92376 18.169 1.94622 18.1349 1.98138L16.9845 2.76848C16.9688 2.77922 16.9552 2.79192 16.9434 2.80657L15.9845 3.43449C15.8976 3.49113 15.8741 3.60734 15.9308 3.69427C15.9669 3.74895 16.0265 3.77922 16.088 3.77922L16.087 3.77829ZM17.2774 3.03512L18.0821 2.50776V4.28317H17.2774V3.03512ZM19.2618 4.28317H18.4571V2.47262L19.2618 3.05561V4.28317Z" fill="#324C3D"/>
<path d="M4.705 3.75401L5.3886 3.28039V4.47081C5.3886 4.57433 5.47259 4.65831 5.5761 4.65831H7.93548C8.03899 4.65831 8.12298 4.57433 8.12298 4.47081V3.30676L8.81048 3.75696C8.8427 3.77747 8.87786 3.78723 8.91302 3.78723C8.97356 3.78723 9.03411 3.75794 9.07024 3.70227C9.12688 3.61536 9.10247 3.49915 9.01653 3.4425L8.04291 2.8048L6.87396 1.95812C6.84076 1.93371 6.80169 1.92199 6.76263 1.92297H6.75677C6.70892 1.92297 6.66497 1.94152 6.63177 1.97082C6.61712 1.97668 6.60247 1.98352 6.5888 1.99231L5.4716 2.76673L5.47062 2.76771L4.4921 3.44543C4.40714 3.50403 4.38565 3.62121 4.44522 3.70618C4.50382 3.79114 4.621 3.81263 4.70597 3.75306L4.705 3.75401ZM5.7636 3.02159L6.5683 2.47179V4.28331H5.7636V3.02159ZM7.74798 4.28331H6.94328V2.53429L7.74798 3.06164V4.28429V4.28331Z" fill="#324C3D"/>
<path d="M11.9063 14.4728C11.7813 14.4728 11.6797 14.5743 11.6797 14.6993C11.6797 14.8253 11.7813 14.9259 11.9063 14.9259C12.0322 14.9259 12.1328 14.8243 12.1328 14.6993C12.1328 14.5734 12.0313 14.4728 11.9063 14.4728Z" fill="#324C3D"/>
<path d="M13.9765 6.29303H11.0243C10.9207 6.29303 10.8368 6.37701 10.8368 6.48053V9.64078C10.8368 9.74429 10.9207 9.82828 11.0243 9.82828H13.9765C14.08 9.82828 14.164 9.74429 14.164 9.64078V6.48053C14.164 6.37701 14.08 6.29303 13.9765 6.29303ZM11.2118 6.66803H12.3133V9.45328H11.2118V6.66803ZM13.789 9.45328H12.6875V6.66803H13.789V9.45328Z" fill="#324C3D"/>
<path d="M18.004 9.63175V6.4715C18.004 6.36798 17.92 6.284 17.8165 6.284H15.4571C15.3536 6.284 15.2696 6.36798 15.2696 6.4715V9.63175C15.2696 9.73526 15.3536 9.81925 15.4571 9.81925H17.8165C17.92 9.81925 18.004 9.73526 18.004 9.63175ZM15.6446 6.659H16.4493V9.44425H15.6446V6.659ZM17.629 9.44425H16.8243V6.659H17.629V9.44425Z" fill="#324C3D"/>
<path d="M19.082 9.81925H21.4414C21.5449 9.81925 21.6289 9.73526 21.6289 9.63175V6.4715C21.6289 6.36798 21.5449 6.284 21.4414 6.284H19.082C18.9785 6.284 18.8945 6.36798 18.8945 6.4715V9.63175C18.8945 9.73526 18.9785 9.81925 19.082 9.81925ZM21.2539 9.44425H20.4492V6.659H21.2539V9.44425ZM19.2695 6.659H20.0742V9.44425H19.2695V6.659Z" fill="#324C3D"/>
<path d="M9.544 6.2793H7.18463C7.08111 6.2793 6.99713 6.36328 6.99713 6.4668V9.62705C6.99713 9.73056 7.08111 9.81455 7.18463 9.81455H9.544C9.64752 9.81455 9.7315 9.73056 9.7315 9.62705V6.4668C9.7315 6.36328 9.64752 6.2793 9.544 6.2793ZM7.37213 6.6543H8.17683V9.43955H7.37213V6.6543ZM9.3565 9.43955H8.5518V6.6543H9.3565V9.43955Z" fill="#324C3D"/>
<path d="M5.918 6.2793H3.55862C3.45511 6.2793 3.37112 6.36328 3.37112 6.4668V9.62705C3.37112 9.73056 3.45511 9.81455 3.55862 9.81455H5.918C6.02152 9.81455 6.1055 9.73056 6.1055 9.62705V6.4668C6.1055 6.36328 6.02152 6.2793 5.918 6.2793ZM3.74612 6.6543H4.55083V9.43955H3.74612V6.6543ZM5.7305 9.43955H4.9258V6.6543H5.7305V9.43955Z" fill="#324C3D"/>
<path d="M24.4755 14.666C24.4042 14.5469 24.2821 14.4619 24.1386 14.4248C24.12 14.2471 24.0321 14.0869 23.8915 13.9824C23.6903 13.834 23.4648 13.8633 23.3778 13.8838C23.2079 13.9219 23.0595 14.0313 22.9579 14.1826C22.9374 14.1699 22.9159 14.1592 22.8944 14.1485V5.8047H23.7558C23.828 5.8047 23.8934 5.76369 23.9247 5.69826C23.9559 5.63283 23.9472 5.55568 23.9013 5.50001C23.5663 5.08301 22.9101 4.09669 22.2763 3.14356C21.6376 2.18261 20.9774 1.18946 20.6317 0.758789C20.5966 0.714844 20.5429 0.688477 20.4853 0.688477H12.5243C12.5037 0.688477 12.4852 0.691406 12.4666 0.697265H4.56438C4.50774 0.697265 4.45403 0.722655 4.4179 0.767578C4.0722 1.19728 3.39935 2.19043 2.74895 3.15038C2.10247 4.10448 1.4345 5.0908 1.09855 5.50878C1.05362 5.56542 1.04386 5.64257 1.07511 5.70702C1.10636 5.77245 1.17179 5.81347 1.24405 5.81347H2.10538V13.797C1.90909 13.7813 1.7089 13.8575 1.5585 14.0011C1.50284 13.9571 1.43643 13.9259 1.36124 13.9103C1.13761 13.8624 0.906165 13.9591 0.78409 14.1515C0.628817 14.3966 0.628817 14.7062 0.676667 14.9718C0.454987 15.0264 0.263592 15.1807 0.165917 15.3966C-0.0196305 15.8057 0.13955 16.3438 0.521392 16.5968C0.551665 16.6173 0.587797 16.628 0.624907 16.628H0.625884L2.24601 16.6221C2.26163 16.6261 2.27726 16.628 2.29386 16.628H23.7871C23.8037 16.628 23.8203 16.6261 23.8359 16.6212C24.1387 16.5391 24.375 16.3018 24.4512 16.002C24.5176 15.7393 24.4424 15.5176 24.3662 15.376C24.4453 15.293 24.5019 15.1925 24.5293 15.084C24.5674 14.9346 24.5487 14.7862 24.4755 14.666ZM3.0595 3.36027C3.6718 2.45597 4.30463 1.52237 4.6552 1.0722H12.5252C12.5457 1.0722 12.5643 1.06927 12.5828 1.06341H20.3943C20.7429 1.51361 21.3631 2.44621 21.9636 3.35051C22.4802 4.12688 23.0105 4.92571 23.3777 5.42961H14.6754H2.29369C2.27416 5.42961 2.25463 5.43254 2.23607 5.4384H1.6228C1.99292 4.9345 2.53312 4.13665 3.0595 3.36027ZM0.50875 15.5518C0.572227 15.4112 0.706015 15.3252 0.8564 15.3252C0.868118 15.3252 0.880814 15.3262 0.892532 15.3272C0.954055 15.333 1.0146 15.3076 1.05366 15.2598C1.09273 15.2119 1.1064 15.1485 1.0898 15.0889C0.998977 14.7705 1.00288 14.5088 1.10152 14.3526C1.14351 14.2862 1.22456 14.2647 1.28316 14.2774C1.34566 14.291 1.35933 14.333 1.36323 14.3643C1.37495 14.4473 1.44038 14.5127 1.52339 14.5235C1.6064 14.5352 1.68647 14.4893 1.72065 14.4121C1.79976 14.2305 1.9941 14.128 2.14545 14.1875C2.16108 14.1934 2.1767 14.2022 2.19135 14.2119C2.19135 14.2119 2.19233 14.2119 2.19233 14.2129C2.20991 14.2237 2.22651 14.2373 2.24115 14.251C2.24311 14.253 2.24506 14.2549 2.24799 14.2569C2.25287 14.2617 2.25776 14.2666 2.26264 14.2715C2.26948 14.2793 2.27631 14.2871 2.28315 14.2949C2.36127 14.3926 2.41108 14.5352 2.40619 14.6719V14.6748C2.40522 14.6885 2.40424 14.7022 2.40326 14.7149C2.40229 14.7188 2.40229 14.7227 2.40131 14.7276C2.38959 14.8301 2.46186 14.9219 2.5644 14.9346C2.64545 14.9444 2.71967 14.9014 2.75483 14.833C2.76362 14.8145 2.77045 14.7949 2.77338 14.7725C2.77436 14.7686 2.77436 14.7647 2.77533 14.7608C2.78901 14.6631 2.84076 14.5713 2.91596 14.5137C2.96674 14.4746 3.02143 14.4571 3.06928 14.4649C3.19233 14.4834 3.3261 14.6729 3.30658 14.8672C3.30561 14.8731 3.30561 14.8789 3.30561 14.8848C3.30561 14.9746 3.37006 15.0528 3.45893 15.0694C3.48334 15.0742 3.50678 15.0733 3.52924 15.0684C3.58783 15.0567 3.63862 15.0176 3.66303 14.961C3.66694 14.9522 3.67084 14.9424 3.6728 14.9336C3.68451 14.8887 3.70209 14.8467 3.7226 14.8067C3.72553 14.8008 3.72846 14.7959 3.73139 14.791C3.73432 14.7852 3.73725 14.7803 3.74116 14.7744C3.74311 14.7715 3.74409 14.7686 3.74604 14.7666C3.78901 14.6992 3.84272 14.6446 3.89936 14.6114C3.91596 14.6026 3.93159 14.5948 3.94819 14.5889C3.94916 14.5889 3.95014 14.5879 3.95112 14.5879C3.95795 14.586 3.96479 14.584 3.97162 14.5821C3.97358 14.5811 3.97553 14.5811 3.97748 14.5811C3.9853 14.5791 3.99311 14.5782 4.00092 14.5772C4.02729 14.5752 4.05463 14.5791 4.08295 14.5899C4.10346 14.5977 4.12397 14.6084 4.14252 14.6221C4.14447 14.6231 4.14643 14.625 4.1474 14.626C4.15131 14.6289 4.15522 14.6319 4.15912 14.6348C4.16205 14.6377 4.16596 14.6407 4.16889 14.6436C4.17182 14.6465 4.17475 14.6494 4.17768 14.6514C4.21576 14.6885 4.24604 14.7364 4.26264 14.7891C4.26264 14.7901 4.26361 14.791 4.26361 14.792C4.27045 14.8145 4.27533 14.8369 4.27631 14.8604C4.28217 14.9405 4.33979 15.0088 4.41791 15.0283C4.49604 15.0479 4.57807 15.0157 4.62201 14.9473C4.6435 14.9131 4.66889 14.8828 4.69721 14.8565C4.70307 14.8516 4.70893 14.8457 4.71381 14.8408C4.71869 14.836 4.72455 14.8321 4.72944 14.8272C4.73822 14.8203 4.74701 14.8135 4.75678 14.8076C4.75873 14.8057 4.76069 14.8047 4.76264 14.8037C4.80072 14.7979 4.83588 14.7803 4.86322 14.7549C4.86908 14.753 4.87592 14.75 4.88178 14.7481C4.88666 14.7461 4.89155 14.7451 4.89643 14.7442C4.90912 14.7412 4.92084 14.7383 4.93354 14.7354C4.9394 14.7344 4.94428 14.7334 4.95014 14.7325C4.95698 14.7315 4.96479 14.7305 4.9726 14.7295C4.98041 14.7285 4.98823 14.7276 4.99604 14.7276C4.99994 14.7276 5.00287 14.7276 5.00678 14.7266C5.02631 14.7256 5.04682 14.7256 5.06635 14.7276C5.07807 14.7285 5.09076 14.7295 5.10248 14.7315H5.10346C5.11518 14.7334 5.12592 14.7354 5.13764 14.7373C5.14057 14.7383 5.1435 14.7393 5.14643 14.7393C5.15815 14.7422 5.16987 14.7451 5.18158 14.7481C5.1933 14.752 5.20502 14.7559 5.21576 14.7598C5.21772 14.7608 5.22065 14.7617 5.2226 14.7627C5.2812 14.7871 5.33784 14.8213 5.38666 14.8682C5.38764 14.8692 5.38862 14.8701 5.39057 14.8711C5.4394 14.919 5.48041 14.9766 5.50971 15.044C5.54096 15.1153 5.61322 15.1612 5.69233 15.1563C5.77045 15.1514 5.83783 15.0987 5.86127 15.0235C5.88373 14.9492 5.92084 14.8828 5.96772 14.8282C5.96869 14.8262 5.97065 14.8252 5.97162 14.8233C5.97846 14.8145 5.98627 14.8067 5.99408 14.7989C5.99701 14.7959 5.99897 14.794 6.0019 14.791C6.00678 14.7862 6.01264 14.7813 6.0185 14.7754C6.02143 14.7725 6.02533 14.7696 6.02826 14.7666C6.09858 14.7071 6.18061 14.6709 6.26166 14.6709H6.2685C6.43939 14.6748 6.6103 14.836 6.66595 15.045C6.68938 15.1309 6.76946 15.1895 6.85833 15.1836C6.9472 15.1787 7.02044 15.1114 7.03313 15.0235C7.0429 14.9532 7.06731 14.8868 7.09954 14.8282C7.10052 14.8262 7.10149 14.8252 7.10247 14.8233C7.15228 14.7364 7.21966 14.67 7.2929 14.6338C7.29388 14.6328 7.29485 14.6328 7.29583 14.6319C7.30267 14.6289 7.3095 14.626 7.31634 14.6231C7.3222 14.6211 7.32806 14.6182 7.33392 14.6172C7.33685 14.6162 7.33978 14.6153 7.34271 14.6143C7.3515 14.6114 7.35931 14.6094 7.3681 14.6084C7.37688 14.6065 7.38665 14.6055 7.39544 14.6045H7.40228C7.40911 14.6045 7.41693 14.6036 7.42376 14.6045C7.42669 14.6045 7.42962 14.6055 7.43255 14.6055C7.43841 14.6065 7.44525 14.6065 7.45111 14.6075C7.45403 14.6084 7.45794 14.6084 7.46087 14.6094C7.46673 14.6104 7.47259 14.6114 7.47845 14.6133C7.48236 14.6143 7.48528 14.6153 7.48919 14.6162C7.49505 14.6182 7.50091 14.6192 7.50579 14.6211C7.5097 14.6221 7.51361 14.6241 7.51751 14.625C7.52239 14.627 7.52825 14.6289 7.53314 14.6309C7.53704 14.6328 7.54095 14.6338 7.54486 14.6358C7.54974 14.6377 7.55462 14.6407 7.5595 14.6426C7.56341 14.6446 7.56829 14.6465 7.5722 14.6495C7.57611 14.6514 7.58001 14.6543 7.58489 14.6573C7.58978 14.6602 7.59368 14.6631 7.59857 14.6661C7.60052 14.668 7.60345 14.669 7.6054 14.6709C7.65911 14.708 7.70794 14.7608 7.74407 14.8243L7.74505 14.8252C7.75384 14.8409 7.76165 14.8565 7.76849 14.8731C7.79095 14.9248 7.83489 14.9639 7.88861 14.9795C7.90228 14.9834 7.91595 14.9854 7.92962 14.9864C7.97064 14.9893 8.01263 14.9776 8.04681 14.9532C8.07806 14.9317 8.10931 14.9102 8.14056 14.8897C8.14154 14.8897 8.14154 14.8887 8.14154 14.8887C8.15521 14.8799 8.16888 14.8711 8.18353 14.8623C8.18646 14.8604 8.18939 14.8594 8.19134 14.8575C8.19622 14.8545 8.20208 14.8506 8.20696 14.8477C8.21575 14.8428 8.22552 14.8369 8.23431 14.8321C8.23431 14.8321 8.23529 14.8321 8.23529 14.8311C8.24505 14.8252 8.25482 14.8203 8.26458 14.8155C8.26654 14.8145 8.26849 14.8135 8.27044 14.8125C8.27826 14.8086 8.28705 14.8037 8.29486 14.7998C8.29681 14.7989 8.29974 14.7979 8.30169 14.7969C8.30951 14.793 8.3183 14.7891 8.32611 14.7852C8.32806 14.7842 8.33001 14.7832 8.33197 14.7823C8.3515 14.7735 8.37201 14.7657 8.39154 14.7588C8.39447 14.7578 8.3974 14.7569 8.39935 14.7559C8.40619 14.7539 8.414 14.751 8.42083 14.75C8.42376 14.7491 8.42767 14.7481 8.4306 14.7471C8.43744 14.7452 8.44427 14.7442 8.45013 14.7422C8.45306 14.7412 8.45697 14.7403 8.4599 14.7403C8.46673 14.7393 8.47357 14.7373 8.4804 14.7364C8.48333 14.7354 8.48626 14.7354 8.48919 14.7354C8.49701 14.7344 8.50482 14.7334 8.51263 14.7334C8.51458 14.7334 8.51654 14.7334 8.51849 14.7325C8.52826 14.7315 8.53802 14.7315 8.54779 14.7325H8.54876C8.55755 14.7325 8.56634 14.7334 8.57513 14.7354C8.57611 14.7354 8.57806 14.7364 8.57904 14.7364C8.58685 14.7383 8.59564 14.7403 8.60443 14.7422H8.6054C8.66204 14.7588 8.71673 14.7959 8.75677 14.8448C8.79486 14.8916 8.81927 14.9502 8.82025 15.0137C8.82025 15.0362 8.81732 15.0635 8.81537 15.0918C8.80853 15.1631 8.79974 15.251 8.82709 15.3438C8.86126 15.459 8.93646 15.5352 8.99115 15.5909C9.00287 15.6026 9.01459 15.6143 9.0263 15.627C9.15228 15.7647 9.1933 16.0157 9.1347 16.2129L2.28995 16.2393L0.6835 16.2452C0.468655 16.0694 0.41495 15.7452 0.505765 15.544L0.50875 15.5518ZM5.7305 11.7618V14.5353C5.72659 14.5392 5.72269 14.5431 5.71976 14.547H5.5889C5.58499 14.5431 5.58011 14.5411 5.57523 14.5372C5.56448 14.5284 5.55276 14.5206 5.54105 14.5128C5.53226 14.507 5.52347 14.5001 5.5137 14.4952C5.50394 14.4884 5.4932 14.4825 5.48343 14.4767C5.47269 14.4708 5.46292 14.465 5.45218 14.4591C5.44046 14.4532 5.42874 14.4474 5.418 14.4415C5.40921 14.4376 5.40042 14.4337 5.39261 14.4298C5.37796 14.4239 5.36429 14.4171 5.34964 14.4122C5.34476 14.4103 5.34085 14.4083 5.33597 14.4073C5.31742 14.4005 5.29789 14.3947 5.27835 14.3888C5.27542 14.3878 5.27152 14.3868 5.26859 14.3859C5.24808 14.38 5.22757 14.3751 5.20707 14.3712C5.20511 14.3712 5.20414 14.3702 5.20218 14.3702C5.16898 14.3634 5.1348 14.3585 5.09964 14.3566C5.04105 14.3517 4.98246 14.3536 4.92679 14.3605V11.7637H5.73149L5.7305 11.7618ZM4.5508 14.497C4.54787 14.499 4.54494 14.5009 4.54201 14.5029C4.5049 14.4472 4.46096 14.3955 4.4092 14.3525C4.29592 14.2568 4.1631 14.205 4.02737 14.2031H4.0137H4.00784C3.99515 14.2031 3.98245 14.2041 3.96976 14.205C3.95218 14.207 3.93362 14.2089 3.91605 14.2128C3.91507 14.2128 3.91409 14.2128 3.91312 14.2138C3.89652 14.2168 3.88089 14.2207 3.86429 14.2255C3.86136 14.2265 3.85941 14.2275 3.85648 14.2275C3.84183 14.2314 3.82816 14.2363 3.81449 14.2421C3.8096 14.2441 3.8057 14.2451 3.80081 14.247C3.78909 14.2519 3.77738 14.2568 3.76566 14.2627C3.7598 14.2656 3.75296 14.2685 3.7471 14.2714V11.7617H4.5518V14.4969L4.5508 14.497ZM8.89555 11.7618V14.4728C8.81645 14.421 8.72856 14.3859 8.63873 14.3722C8.63189 14.3712 8.62603 14.3702 8.61919 14.3693C8.61431 14.3683 8.60943 14.3683 8.60455 14.3673C8.59185 14.3663 8.58013 14.3654 8.56841 14.3644C8.55474 14.3634 8.54205 14.3634 8.52935 14.3634C8.52642 14.3634 8.52349 14.3634 8.51959 14.3644C8.50982 14.3644 8.50005 14.3654 8.49029 14.3654C8.48638 14.3654 8.48345 14.3663 8.47955 14.3663C8.47076 14.3673 8.46099 14.3683 8.45122 14.3693C8.44732 14.3702 8.44341 14.3702 8.43951 14.3712C8.43072 14.3722 8.42193 14.3741 8.41314 14.3751C8.40826 14.3761 8.40435 14.3771 8.39947 14.3781C8.39165 14.38 8.38384 14.381 8.37603 14.3829C8.37017 14.3839 8.36529 14.3859 8.35943 14.3868C8.35259 14.3888 8.34673 14.3898 8.3399 14.3917C8.33306 14.3937 8.32622 14.3956 8.31841 14.3976C8.31353 14.3986 8.30865 14.4005 8.30376 14.4015C8.29497 14.4044 8.28619 14.4073 8.2774 14.4103C8.27447 14.4113 8.27251 14.4122 8.26958 14.4132C8.25884 14.4171 8.24712 14.421 8.23638 14.4249H8.2354C8.18462 14.4445 8.13482 14.4669 8.08892 14.4913V11.7638H8.89362L8.89555 11.7618ZM7.71585 14.3028C7.63187 14.2627 7.54202 14.2393 7.45023 14.2344H7.4473C7.43753 14.2334 7.42776 14.2334 7.418 14.2334C7.41507 14.2334 7.41116 14.2344 7.40823 14.2344C7.39847 14.2344 7.38772 14.2354 7.37796 14.2354C7.37112 14.2364 7.36331 14.2364 7.35648 14.2364C7.3389 14.2383 7.32132 14.2403 7.30374 14.2432C7.28812 14.2461 7.27249 14.25 7.25687 14.2539C7.25198 14.2549 7.2471 14.2569 7.24222 14.2579C7.23929 14.2588 7.23636 14.2598 7.2344 14.2598C7.22562 14.2627 7.21683 14.2657 7.20804 14.2686C7.19729 14.2725 7.18655 14.2764 7.17581 14.2813C7.17093 14.2832 7.16702 14.2852 7.16214 14.2872C7.07034 14.3262 6.98538 14.3858 6.91116 14.4629V11.7617H7.71586L7.71585 14.3028ZM11.4386 16.253V12.5332H13.5626V16.253H11.4386ZM13.9376 16.253V12.3457C13.9376 12.2422 13.8536 12.1582 13.7501 12.1582H11.2511C11.1476 12.1582 11.0636 12.2422 11.0636 12.3457V16.253H10.3107V12.6837C10.3126 12.6769 10.3146 12.671 10.3175 12.6652C10.3204 12.6583 10.3283 12.6378 10.337 12.6202C10.339 12.6154 10.3419 12.6115 10.3449 12.6066L12.4777 10.8107L14.464 12.4542C14.4884 12.4747 14.506 12.4894 14.5148 12.4972C14.5333 12.5138 14.589 12.5675 14.6163 12.6202C14.6251 12.6378 14.6339 12.6583 14.6359 12.6652C14.6378 12.671 14.6407 12.6779 14.6427 12.6847V16.2539H13.9376L13.9376 16.253ZM15.0177 16.253V12.9112L15.1349 13.0089C15.17 13.0382 15.212 13.0519 15.254 13.0519C15.3077 13.0519 15.3615 13.0284 15.3986 12.9835C15.465 12.9034 15.4532 12.7852 15.3732 12.7198L14.7032 12.1651C14.4972 11.9913 13.7765 11.3858 12.8194 10.588C12.8165 10.586 12.8146 10.5841 12.8116 10.5811L12.588 10.4141C12.5841 10.4112 12.5802 10.4093 12.5763 10.4073C12.5724 10.4044 12.5685 10.4024 12.5646 10.4005C12.5587 10.3975 12.5528 10.3956 12.548 10.3927C12.5441 10.3907 12.5401 10.3887 12.5362 10.3878C12.5294 10.3858 12.5226 10.3839 12.5167 10.3829C12.5138 10.3819 12.5099 10.3809 12.5069 10.38C12.4972 10.378 12.4864 10.377 12.4767 10.377C12.4737 10.377 12.4718 10.378 12.4689 10.378C12.461 10.378 12.4532 10.379 12.4464 10.38C12.4425 10.3809 12.4386 10.3819 12.4347 10.3829C12.4288 10.3848 12.422 10.3858 12.4161 10.3878C12.4122 10.3897 12.4083 10.3907 12.4044 10.3927C12.3985 10.3956 12.3927 10.3975 12.3878 10.4005C12.3839 10.4024 12.38 10.4053 12.3761 10.4073C12.3722 10.4093 12.3692 10.4112 12.3653 10.4141L12.1417 10.5811C12.1388 10.5831 12.1359 10.585 12.1339 10.588C11.0655 11.4786 10.2784 12.1407 10.1974 12.21C10.1886 12.2179 10.1251 12.2725 10.0655 12.3516L9.62804 12.7208C9.54894 12.7872 9.53917 12.9054 9.60558 12.9854C9.67198 13.0645 9.79015 13.0743 9.87023 13.0079L9.93761 12.9513V16.254H9.51963C9.52159 16.2462 9.52256 16.2384 9.52452 16.2306C9.52647 16.2237 9.52745 16.2159 9.52842 16.2091C9.53135 16.1905 9.53428 16.172 9.53624 16.1525C9.53721 16.1485 9.53721 16.1446 9.53819 16.1407C9.54014 16.1183 9.5421 16.0948 9.54307 16.0724V16.0538V16.003C9.54307 15.9952 9.5421 15.9874 9.5421 15.9806C9.54112 15.964 9.54014 15.9474 9.53819 15.9308C9.53721 15.9239 9.53721 15.9171 9.53624 15.9112C9.53331 15.8888 9.53038 15.8653 9.52647 15.8429C9.52549 15.8409 9.52549 15.839 9.52549 15.837C9.52159 15.8165 9.51768 15.797 9.5128 15.7765C9.51085 15.7696 9.50889 15.7628 9.50694 15.756C9.50303 15.7403 9.49815 15.7247 9.49327 15.7101C9.49131 15.7032 9.48838 15.6954 9.48643 15.6886C9.48057 15.672 9.47471 15.6554 9.46788 15.6388C9.46592 15.6339 9.46397 15.63 9.46202 15.6251C9.45323 15.6046 9.44444 15.5841 9.4337 15.5646C9.43077 15.5597 9.42881 15.5548 9.42588 15.5499C9.41807 15.5353 9.40928 15.5206 9.40147 15.506C9.39756 15.5001 9.39366 15.4933 9.38975 15.4874C9.38096 15.4747 9.37217 15.462 9.36338 15.4493C9.35948 15.4435 9.35557 15.4386 9.35167 15.4327C9.33799 15.4151 9.32432 15.3985 9.31065 15.3829C9.296 15.3673 9.28038 15.3507 9.26475 15.3351C9.23057 15.3009 9.20128 15.2716 9.19444 15.2472C9.1876 15.2237 9.19151 15.1788 9.19639 15.1359C9.19932 15.1007 9.20323 15.0616 9.20323 15.0196C9.20323 14.9757 9.19835 14.9327 9.18956 14.8927C9.24034 14.8595 9.27354 14.8019 9.27354 14.7364V11.5762C9.27354 11.4727 9.18956 11.3887 9.08604 11.3887H6.72667C6.62315 11.3887 6.53917 11.4727 6.53917 11.5762V14.3594C6.45811 14.3243 6.3712 14.3038 6.28332 14.3008C6.26867 14.3008 6.25402 14.3008 6.23937 14.3018C6.19543 14.3038 6.15148 14.3096 6.10851 14.3204V11.5761C6.10851 11.4726 6.02453 11.3886 5.92101 11.3886H3.56164C3.45812 11.3886 3.37414 11.4726 3.37414 11.5761V14.1981C3.30089 14.1454 3.21886 14.1093 3.13097 14.0966C2.98156 14.0731 2.8253 14.1171 2.6925 14.2177C2.68957 14.2196 2.68664 14.2216 2.68468 14.2245C2.64171 14.1386 2.58605 14.0604 2.51964 13.994C2.51867 13.993 2.51769 13.9921 2.51671 13.9911C2.51379 13.9882 2.51086 13.9862 2.5089 13.9833C2.50207 13.9764 2.49425 13.9696 2.48644 13.9628L2.48546 13.9618V5.8153H10.3947L14.681 5.80651H22.5227V14.1025C22.5208 14.1025 22.5198 14.1035 22.5188 14.1035C22.5139 14.1045 22.5081 14.1064 22.5032 14.1074C22.4973 14.1093 22.4905 14.1103 22.4846 14.1123C22.4797 14.1142 22.4749 14.1152 22.469 14.1172C22.4631 14.1191 22.4573 14.1211 22.4514 14.123C22.4465 14.125 22.4417 14.1269 22.4358 14.1289C22.4299 14.1308 22.4241 14.1338 22.4182 14.1357C22.4133 14.1377 22.4085 14.1396 22.4036 14.1425C22.3977 14.1455 22.3919 14.1474 22.387 14.1504C22.3821 14.1523 22.3772 14.1552 22.3723 14.1572C22.3665 14.1601 22.3616 14.1631 22.3567 14.166C22.3518 14.1689 22.3469 14.1709 22.343 14.1738C22.3381 14.1767 22.3323 14.1797 22.3274 14.1836C22.3225 14.1865 22.3186 14.1894 22.3137 14.1924C22.3088 14.1963 22.304 14.1992 22.2981 14.2031C22.2942 14.206 22.2893 14.209 22.2854 14.2129C22.2805 14.2168 22.2756 14.2207 22.2708 14.2246C22.2669 14.2275 22.263 14.2314 22.2581 14.2343C22.2532 14.2382 22.2483 14.2422 22.2434 14.247C22.2395 14.2509 22.2356 14.2539 22.2317 14.2578C22.2268 14.2627 22.2229 14.2666 22.218 14.2715C22.2141 14.2754 22.2112 14.2783 22.2073 14.2822C22.2024 14.2871 22.1985 14.292 22.1936 14.2968C22.1907 14.3007 22.1868 14.3047 22.1838 14.3086C22.179 14.3134 22.1751 14.3193 22.1712 14.3242C22.1682 14.3281 22.1653 14.332 22.1624 14.3359C22.1585 14.3418 22.1536 14.3476 22.1497 14.3535C22.1467 14.3574 22.1448 14.3603 22.1419 14.3642C22.137 14.3711 22.1331 14.3779 22.1292 14.3838C22.1272 14.3867 22.1253 14.3896 22.1233 14.3935C22.1174 14.4033 22.1116 14.414 22.1057 14.4238C21.9963 14.3525 21.8684 14.3134 21.7366 14.3154H21.7317C21.6985 14.3164 21.6663 14.3193 21.634 14.3252V11.5702C21.634 11.4666 21.5501 11.3827 21.4465 11.3827H19.0872C18.9836 11.3827 18.8997 11.4666 18.8997 11.5702V14.7187C18.885 14.7011 18.8713 14.6835 18.8577 14.6669C18.7854 14.5819 18.6907 14.5214 18.5872 14.4862C18.554 14.4745 18.5198 14.4657 18.4846 14.4599V11.5694C18.4846 11.4659 18.4006 11.3819 18.2971 11.3819H15.9378C15.8342 11.3819 15.7503 11.4659 15.7503 11.5694V14.7296C15.7503 14.7775 15.7678 14.8204 15.7971 14.8536C15.6907 14.965 15.6301 15.1251 15.636 15.2892C15.6389 15.3771 15.6604 15.4581 15.6985 15.5294C15.5725 15.673 15.51 15.8605 15.5335 16.048C15.5354 16.0656 15.5383 16.0822 15.5422 16.0988C15.5432 16.1007 15.5432 16.1027 15.5432 16.1046C15.5471 16.1202 15.551 16.1359 15.5559 16.1515C15.5569 16.1544 15.5579 16.1564 15.5588 16.1593C15.5637 16.1749 15.5686 16.1896 15.5745 16.2042C15.5754 16.2072 15.5764 16.2091 15.5774 16.212C15.5833 16.2267 15.5901 16.2413 15.5969 16.256C15.5969 16.257 15.5979 16.257 15.5979 16.2579H15.0217L15.0177 16.253ZM20.8087 14.3096C20.8087 14.3096 20.8077 14.3096 20.8067 14.3087C20.7941 14.3038 20.7814 14.2999 20.7696 14.296C20.7677 14.295 20.7667 14.295 20.7657 14.295C20.754 14.2911 20.7423 14.2881 20.7306 14.2852C20.7286 14.2842 20.7257 14.2842 20.7237 14.2833C20.713 14.2803 20.7023 14.2784 20.6915 14.2754C20.6886 14.2745 20.6857 14.2735 20.6827 14.2735C20.672 14.2715 20.6612 14.2696 20.6505 14.2676C20.6476 14.2667 20.6446 14.2667 20.6407 14.2657C20.6271 14.2637 20.6134 14.2618 20.5997 14.2598C20.5499 14.254 20.4991 14.254 20.4503 14.2579V11.7521H21.255V14.5216C21.2501 14.5265 21.2452 14.5324 21.2404 14.5382H21.1632C21.1232 14.4992 21.0812 14.463 21.0363 14.4318C20.965 14.381 20.8878 14.34 20.8087 14.3107L20.8087 14.3096ZM19.4376 14.3321C19.423 14.335 19.4083 14.3379 19.3937 14.3409C19.3497 14.3506 19.3087 14.3653 19.2696 14.3838V11.7531H20.0743V14.3848C20.0255 14.4151 19.9796 14.4513 19.9376 14.4923C19.8029 14.3653 19.6153 14.3048 19.4415 14.3321C19.4396 14.3321 19.4386 14.3321 19.4366 14.3331L19.4376 14.3321ZM18.1046 14.5079C18.0948 14.5127 18.086 14.5176 18.0763 14.5235C18.0743 14.5245 18.0724 14.5264 18.0704 14.5274C18.0646 14.5313 18.0577 14.5342 18.0519 14.5391H17.8585C17.8448 14.5254 17.8312 14.5118 17.8175 14.4991C17.7775 14.4629 17.7345 14.4297 17.6886 14.4004C17.6866 14.3985 17.6837 14.3975 17.6818 14.3965C17.6749 14.3926 17.6691 14.3887 17.6622 14.3848C17.6564 14.3809 17.6505 14.378 17.6446 14.3751C17.6398 14.3721 17.6339 14.3692 17.629 14.3663L17.6056 14.3545C17.6017 14.3526 17.5978 14.3506 17.5929 14.3487C17.5821 14.3438 17.5714 14.3389 17.5616 14.334C17.5597 14.3331 17.5577 14.3321 17.5568 14.3321C17.5441 14.3262 17.5304 14.3213 17.5177 14.3165C17.5167 14.3155 17.5148 14.3155 17.5138 14.3145C17.5021 14.3106 17.4903 14.3067 17.4796 14.3028C17.4757 14.3018 17.4718 14.3008 17.4679 14.2989C17.4591 14.296 17.4493 14.294 17.4405 14.2911C17.4357 14.2901 17.4317 14.2891 17.4269 14.2872C17.4181 14.2852 17.4093 14.2833 17.3995 14.2813C17.3946 14.2803 17.3907 14.2794 17.3859 14.2784C17.3741 14.2764 17.3624 14.2745 17.3507 14.2725C17.3487 14.2725 17.3478 14.2715 17.3458 14.2715C17.336 14.2706 17.3263 14.2696 17.3165 14.2686C17.3116 14.2676 17.3058 14.2676 17.3009 14.2667C17.296 14.2657 17.2911 14.2657 17.2862 14.2657C17.2833 14.2657 17.2804 14.2657 17.2775 14.2647V11.753H18.1056V14.508L18.1046 14.5079ZM16.9015 14.3399C16.8976 14.3418 16.8946 14.3428 16.8917 14.3448C16.8819 14.3497 16.8722 14.3545 16.8614 14.3594C16.8585 14.3614 16.8556 14.3624 16.8536 14.3643C16.838 14.3721 16.8234 14.3809 16.8087 14.3907C16.8009 14.3956 16.7931 14.4004 16.7853 14.4053C16.7804 14.4083 16.7755 14.4122 16.7706 14.4151C16.7628 14.421 16.754 14.4268 16.7462 14.4327C16.7413 14.4366 16.7374 14.4395 16.7325 14.4434C16.7276 14.4473 16.7228 14.4502 16.7179 14.4542C16.714 14.4571 16.711 14.46 16.7081 14.4629C16.7042 14.4659 16.7003 14.4698 16.6964 14.4727C16.6866 14.4815 16.6769 14.4903 16.6681 14.4991C16.6661 14.501 16.6651 14.502 16.6632 14.503C16.6515 14.5147 16.6398 14.5254 16.629 14.5372H16.1192V11.7519H16.9015L16.9015 14.3399ZM24.1652 14.9903C24.1467 15.0645 24.093 15.1319 24.0197 15.1749C23.9709 15.2032 23.9377 15.252 23.9289 15.3077C23.9201 15.3633 23.9367 15.42 23.9748 15.462C23.9816 15.4698 24.1496 15.6612 24.0871 15.9083C24.0461 16.0704 23.9221 16.2003 23.76 16.252H16.223C16.0599 16.251 15.9183 16.1387 15.8997 15.9952C15.886 15.8858 15.9485 15.7686 16.055 15.7042C16.1106 15.67 16.1438 15.6104 16.1448 15.546C16.1458 15.4815 16.1126 15.421 16.0579 15.3858C16.012 15.3565 16.0052 15.295 16.0042 15.2706C16.0013 15.1993 16.0325 15.127 16.0804 15.0909C16.0872 15.086 16.094 15.0811 16.1019 15.0772C16.1038 15.0762 16.1067 15.0743 16.1087 15.0733C16.1136 15.0704 16.1194 15.0675 16.1253 15.0655C16.1282 15.0645 16.1302 15.0636 16.1331 15.0616C16.139 15.0587 16.1448 15.0567 16.1507 15.0548C16.1526 15.0538 16.1546 15.0528 16.1565 15.0528C16.1644 15.0499 16.1722 15.0479 16.181 15.047C16.1829 15.046 16.1849 15.046 16.1878 15.046C16.1936 15.045 16.2005 15.044 16.2063 15.043C16.2093 15.043 16.2122 15.0421 16.2161 15.0421C16.222 15.0411 16.2278 15.0411 16.2327 15.0411H16.2425H16.2532C16.261 15.0411 16.2688 15.0421 16.2767 15.0421C16.2806 15.0421 16.2835 15.043 16.2874 15.043C16.2952 15.044 16.303 15.045 16.3108 15.046C16.3138 15.047 16.3177 15.047 16.3206 15.0479C16.3294 15.0499 16.3382 15.0518 16.3479 15.0538C16.3499 15.0548 16.3519 15.0548 16.3528 15.0548C16.3636 15.0577 16.3743 15.0616 16.3851 15.0645C16.387 15.0655 16.389 15.0665 16.3919 15.0675C16.3997 15.0704 16.4085 15.0733 16.4163 15.0772C16.4192 15.0792 16.4231 15.0802 16.4261 15.0821C16.4329 15.085 16.4397 15.0889 16.4456 15.0919C16.4485 15.0938 16.4524 15.0958 16.4554 15.0977C16.4622 15.1016 16.4681 15.1055 16.4749 15.1095C16.4778 15.1114 16.4808 15.1134 16.4827 15.1143C16.4915 15.1202 16.5003 15.1261 16.5081 15.1329C16.5628 15.1768 16.637 15.1866 16.7015 15.1583C16.7659 15.13 16.8089 15.0684 16.8128 14.9981C16.8167 14.9405 16.8372 14.8848 16.8714 14.8341C16.8724 14.8331 16.8733 14.8321 16.8733 14.8311C16.8792 14.8233 16.8851 14.8155 16.8909 14.8077C16.8919 14.8067 16.8919 14.8067 16.8919 14.8057C16.8968 14.7999 16.9007 14.795 16.9056 14.7901C16.9095 14.7852 16.9144 14.7804 16.9183 14.7764C16.9212 14.7735 16.9241 14.7706 16.927 14.7677C16.9358 14.7598 16.9446 14.7511 16.9544 14.7432C17.0394 14.6739 17.1458 14.6358 17.2454 14.6368H17.2532C17.2659 14.6378 17.2786 14.6378 17.2913 14.6397H17.2923C17.3069 14.6417 17.3226 14.6446 17.3372 14.6485C17.3411 14.6495 17.346 14.6514 17.3499 14.6524C17.3607 14.6554 17.3704 14.6583 17.3812 14.6622C17.386 14.6641 17.3909 14.6661 17.3958 14.668C17.4056 14.672 17.4144 14.6759 17.4241 14.6798C17.429 14.6817 17.4329 14.6846 17.4378 14.6866C17.4476 14.6915 17.4573 14.6973 17.4681 14.7032C17.471 14.7052 17.4739 14.7071 17.4769 14.7091C17.4886 14.7159 17.5003 14.7237 17.511 14.7325C17.512 14.7335 17.513 14.7345 17.514 14.7345C17.554 14.7637 17.5911 14.7999 17.6253 14.8419C17.6282 14.8448 17.6302 14.8477 17.6331 14.8507C17.6985 14.9346 17.7444 15.0372 17.7601 15.1475C17.761 15.1554 17.763 15.1641 17.7649 15.172C17.7679 15.1817 17.7708 15.1905 17.7747 15.1993C17.7747 15.2003 17.7757 15.2013 17.7757 15.2013V15.2022C17.8099 15.2735 17.887 15.3184 17.97 15.3077C18.0726 15.294 18.1439 15.2003 18.1312 15.0977C18.1204 15.0147 18.1595 14.9249 18.2259 14.8712C18.2269 14.8702 18.2269 14.8702 18.2278 14.8702C18.2357 14.8643 18.2435 14.8585 18.2513 14.8536C18.2523 14.8526 18.2532 14.8526 18.2542 14.8516C18.262 14.8468 18.2698 14.8429 18.2776 14.8389C18.2923 14.8331 18.3079 14.8272 18.3255 14.8243C18.3274 14.8243 18.3294 14.8233 18.3304 14.8233C18.4153 14.8087 18.511 14.8399 18.5657 14.9044C18.5774 14.918 18.5901 14.9337 18.6028 14.9493C18.6849 15.0528 18.8372 15.2442 19.0638 15.1573C19.1165 15.1368 19.1575 15.0938 19.1751 15.0401C19.2054 14.9473 19.262 14.8497 19.3372 14.7823C19.3382 14.7813 19.3392 14.7804 19.3402 14.7794C19.345 14.7745 19.3509 14.7706 19.3558 14.7667C19.3587 14.7638 19.3616 14.7618 19.3646 14.7599C19.3695 14.756 19.3734 14.753 19.3782 14.7501C19.3822 14.7472 19.387 14.7442 19.3909 14.7413C19.3958 14.7384 19.3997 14.7364 19.4046 14.7335C19.4095 14.7306 19.4144 14.7276 19.4202 14.7257C19.4241 14.7237 19.429 14.7218 19.4339 14.7198C19.4398 14.7169 19.4466 14.7149 19.4525 14.713C19.4564 14.712 19.4603 14.7101 19.4642 14.7091C19.4749 14.7061 19.4857 14.7032 19.4964 14.7013H19.4974C19.5042 14.7003 19.5111 14.6993 19.5189 14.6993H19.5238C19.5306 14.6993 19.5384 14.6993 19.5452 14.7003C19.5462 14.7003 19.5472 14.7003 19.5491 14.7013C19.555 14.7022 19.5618 14.7032 19.5677 14.7052C19.5697 14.7061 19.5716 14.7061 19.5736 14.7071C19.5804 14.7091 19.5872 14.711 19.5941 14.713C19.596 14.714 19.5989 14.7149 19.6009 14.7159C19.6058 14.7179 19.6116 14.7198 19.6165 14.7228C19.6185 14.7237 19.6204 14.7247 19.6224 14.7257C19.6292 14.7286 19.6351 14.7325 19.6409 14.7364C19.6429 14.7374 19.6448 14.7394 19.6468 14.7403C19.6527 14.7442 19.6595 14.7491 19.6654 14.754L19.6673 14.756C19.6732 14.7608 19.679 14.7657 19.6839 14.7716C19.6849 14.7726 19.6859 14.7735 19.6878 14.7745C19.6888 14.7755 19.6898 14.7774 19.6917 14.7784C19.6937 14.7804 19.6956 14.7833 19.6976 14.7853C19.6986 14.7872 19.6995 14.7882 19.7015 14.7892C19.7044 14.7931 19.7064 14.796 19.7093 14.7999C19.7093 14.8009 19.7103 14.8009 19.7103 14.8009C19.7132 14.8048 19.7161 14.8097 19.7181 14.8145V14.8155C19.723 14.8243 19.7259 14.8341 19.7288 14.8438V14.8458C19.7298 14.8507 19.7308 14.8546 19.7308 14.8595V14.8604C19.7308 14.8653 19.7308 14.8702 19.7298 14.8761C19.7298 14.878 19.7288 14.88 19.7288 14.881C19.7113 14.9825 19.7796 15.0792 19.8812 15.0968C19.9827 15.1144 20.0794 15.0479 20.098 14.9464C20.099 14.9444 20.099 14.9415 20.099 14.9395C20.1009 14.9298 20.1038 14.919 20.1068 14.9093C20.1068 14.9083 20.1077 14.9063 20.1077 14.9054C20.1175 14.8731 20.1341 14.8419 20.1546 14.8136C20.1556 14.8126 20.1556 14.8116 20.1566 14.8106C20.1702 14.7921 20.1859 14.7745 20.2034 14.7579C20.2054 14.7569 20.2064 14.755 20.2073 14.754C20.2142 14.7481 20.221 14.7423 20.2279 14.7364C20.2308 14.7335 20.2347 14.7315 20.2376 14.7286C20.2425 14.7247 20.2484 14.7208 20.2532 14.7169C20.2581 14.714 20.263 14.7101 20.2679 14.7071C20.2708 14.7052 20.2738 14.7032 20.2767 14.7022C20.3001 14.6876 20.3245 14.6759 20.3499 14.6651C20.3499 14.6651 20.3509 14.6651 20.3509 14.6642C20.3861 14.6505 20.4222 14.6407 20.4593 14.6358C20.4632 14.6349 20.4671 14.6349 20.472 14.6339C20.4779 14.6329 20.4837 14.6329 20.4896 14.6319C20.4964 14.631 20.5032 14.631 20.5101 14.631H20.5228C20.5345 14.631 20.5462 14.6319 20.5579 14.6329C20.5697 14.6339 20.5823 14.6358 20.5941 14.6388C20.596 14.6397 20.598 14.6397 20.5999 14.6397C20.7005 14.6603 20.7982 14.714 20.8812 14.7901C20.8851 14.794 20.889 14.797 20.8929 14.8019C20.8968 14.8058 20.8997 14.8087 20.9036 14.8126C20.9154 14.8243 20.9271 14.836 20.9378 14.8487L20.9388 14.8497C20.9905 14.9093 21.0335 14.9786 21.0648 15.0548C21.0687 15.0645 21.0736 15.0743 21.0794 15.0831C21.1126 15.1368 21.1712 15.17 21.2347 15.171C21.2454 15.171 21.2562 15.17 21.2669 15.169C21.3519 15.1563 21.4183 15.087 21.4261 15.0011C21.432 14.9405 21.4525 14.8839 21.4837 14.836C21.4847 14.8351 21.4857 14.8331 21.4866 14.8321C21.5072 14.8018 21.5316 14.7755 21.5589 14.753C21.5609 14.752 21.5618 14.7501 21.5638 14.7491C21.6136 14.711 21.6722 14.6886 21.7357 14.6876H21.7415C21.8656 14.6876 21.9827 14.7725 22.0345 14.9005C22.0677 14.9815 22.1527 15.0284 22.2386 15.0147C22.2445 15.0138 22.2503 15.0128 22.2552 15.0108C22.2718 15.0059 22.2884 14.9991 22.3031 14.9913C22.3617 14.9571 22.3978 14.8927 22.3958 14.8233C22.3958 14.8175 22.3949 14.8116 22.3949 14.8058C22.3929 14.794 22.3929 14.7833 22.3919 14.7725C22.39 14.7218 22.3997 14.6749 22.4163 14.6329C22.4535 14.5421 22.5286 14.4796 22.6058 14.4669H22.6068C22.6116 14.4659 22.6175 14.4659 22.6224 14.4649H22.6292H22.639C22.6507 14.4649 22.6615 14.4669 22.6732 14.4688H22.6761C22.7474 14.4825 22.8177 14.5323 22.8656 14.6046C22.9066 14.6681 22.9818 14.7003 23.056 14.6866C23.1302 14.6729 23.1888 14.6173 23.2054 14.544C23.2396 14.3936 23.3402 14.2784 23.4613 14.2511C23.4984 14.2423 23.5931 14.2296 23.6702 14.2862C23.7464 14.3429 23.7835 14.4503 23.763 14.5606C23.7532 14.6173 23.7689 14.6739 23.807 14.7169C23.845 14.7599 23.8997 14.7823 23.9564 14.7804C24.0443 14.7765 24.1243 14.8087 24.1556 14.8604C24.1751 14.8936 24.18 14.9415 24.1673 14.9923L24.1652 14.9903Z" fill="#324C3D"/>
</svg>
