<svg width="23" height="17" viewBox="0 0 23 17" fill="none" xmlns="http://www.w3.org/2000/svg">
<path d="M22.085 14.4154V14.3577C22.085 13.5454 21.4472 12.9077 20.635 12.9077C19.9972 12.9077 19.4455 13.3427 19.2428 13.9227C18.9822 14.0382 18.8078 14.2999 18.8078 14.5899V14.6477C18.5755 14.8799 18.4305 15.2277 18.4305 15.5754C18.4305 16.3004 19.0105 16.8804 19.7355 16.8804H21.5333C22.2583 16.8804 22.8383 16.3004 22.8383 15.5754C22.8394 15.0827 22.52 14.6193 22.085 14.4154ZM21.5345 16.2143H19.7367C19.3889 16.2143 19.1272 15.9538 19.1272 15.6049C19.1272 15.4021 19.2428 15.1993 19.3878 15.0826L19.6483 14.9082L19.5033 14.6476V14.6182C19.5033 14.5887 19.5328 14.5604 19.5611 14.5604L19.8511 14.531L19.8806 14.2704C19.9383 13.8932 20.2578 13.6032 20.635 13.6032C21.07 13.6032 21.3895 13.9509 21.3895 14.3576C21.3895 14.4154 21.3895 14.5026 21.36 14.5604L21.2728 14.9082L21.65 14.966C21.94 15.0237 22.1428 15.2854 22.1428 15.5754C22.1428 15.9243 21.8822 16.2143 21.5345 16.2143Z" fill="#324C3D"/>
<path d="M20.0846 10.965H22.0568V10.2978H20.2001C20.2579 9.31223 20.1707 8.29723 19.9396 7.36818H22.0851V6.70095H19.7357C19.4751 5.86041 19.0979 5.16372 18.6334 4.67095C18.2562 4.26541 17.8212 4.06149 17.4157 4.06149C17.0101 4.06149 16.5751 4.26426 16.1979 4.67095C15.7629 5.13541 15.3857 5.86041 15.0957 6.70095H14.7762C12.3112 6.70095 10.2812 8.70149 10.2812 11.196V11.8632C10.2812 12.2982 9.93344 12.6176 9.52674 12.6176H8.80174L8.80287 9.22494C10.2234 9.07994 11.1229 8.00717 11.2384 6.3544C11.3834 4.1794 10.7162 1.80169 9.67287 0.6994C9.29564 0.293864 8.86064 0.0899353 8.45511 0.0899353C8.04957 0.0899353 7.61457 0.292709 7.23734 0.6994C6.28011 1.74386 5.64234 3.85982 5.6718 5.9194C5.35234 5.10717 4.56957 4.52717 3.6418 4.52717C2.6268 4.52717 1.7568 5.2227 1.52457 6.17994C1.11903 6.32494 0.829034 6.70217 0.829034 7.13717C0.829034 7.19494 0.829034 7.25272 0.858487 7.33994C0.452951 7.71717 0.191254 8.23941 0.191254 8.78994C0.191254 9.86271 1.06125 10.7327 2.13402 10.7327H3.29402V13.2555H9.5586C10.3708 13.2555 11.0086 12.6177 11.0086 11.8055V11.1382C11.0086 9.05048 12.7191 7.33867 14.8082 7.33867H14.9237C14.6915 8.26643 14.6043 9.28143 14.6632 10.2682V10.326C14.0832 10.5288 13.6776 11.051 13.6776 11.6888V12.356C13.6776 14.4438 11.9671 16.1556 9.87807 16.1556H3.29304V16.8228H9.84762C12.3126 16.8228 14.3426 14.8223 14.3426 12.3278V11.6606C14.3426 11.3706 14.5171 11.1101 14.7776 10.9651C15.0676 12.1828 15.9082 12.9373 17.0976 13.0823V16.8227H17.7648V13.14C18.9532 13.0245 19.8229 12.2122 20.0846 10.965ZM7.73 1.19228C7.90445 1.01783 8.165 0.786747 8.455 0.786747C8.745 0.786747 9.00554 1.01897 9.18 1.19228C9.96277 2.00452 10.6878 4.09228 10.5428 6.32499C10.4555 7.60053 9.81777 8.41276 8.7733 8.52946L8.77444 3.94717C8.77444 3.85994 8.80389 3.77272 8.86166 3.71494L9.3839 3.19271L8.91943 2.69994L8.3972 3.22217C8.22275 3.39663 8.1072 3.65717 8.1072 3.91771V6.03494L7.72997 5.65771L7.2655 6.17994L8.10604 7.02048V8.55771C7.06157 8.41271 6.42381 7.62994 6.33658 6.35325C6.22216 4.09214 6.94723 2.00457 7.73 1.19228ZM2.10458 10.0657C1.40904 10.0657 0.857348 9.51517 0.857348 8.81847C0.857348 8.38347 1.06012 8.00624 1.40788 7.77401L1.66843 7.59956L1.52343 7.33901C1.49398 7.28123 1.49398 7.22346 1.49398 7.19401C1.49398 7.01956 1.63898 6.87454 1.81344 6.84624L2.10344 6.81679L2.1329 6.55624C2.24844 5.80178 2.88736 5.25124 3.64066 5.25124C4.4812 5.25124 5.14843 5.91847 5.14843 6.75901C5.14843 6.90401 5.11898 7.01956 5.09066 7.16454L5.00343 7.51231L5.38066 7.57009C5.99013 7.68563 6.42513 8.20785 6.42513 8.81732C6.42513 9.51285 5.87459 10.0645 5.1779 10.0645H4.0179V7.92014C4.0179 7.83292 4.04735 7.74569 4.10512 7.68792L4.71459 7.07845L4.22182 6.58569L3.61235 7.19515C3.4379 7.3696 3.32235 7.63015 3.32235 7.89069V8.18069L2.94512 7.80345L2.45235 8.29622L3.32235 9.16622V10.0657L2.10458 10.0657ZM3.96012 10.7624H5.12012C6.16458 10.7624 7.00512 9.95014 7.06288 8.93514C7.38235 9.10959 7.73012 9.22514 8.10735 9.2546V12.6192H3.96006L3.96012 10.7624ZM15.3278 10.2401C15.1828 8.00737 15.9373 5.91972 16.6906 5.10743C16.865 4.93298 17.1256 4.70189 17.4156 4.70189C17.7056 4.70189 17.9661 4.93412 18.1406 5.10743C18.9234 5.91966 19.6484 8.00743 19.5034 10.2401C19.4161 11.5157 18.7784 12.3279 17.7339 12.4446V10.9074L18.5744 10.0668L18.0817 9.57407L17.7044 9.9513V7.83407C17.7044 7.57352 17.5889 7.31184 17.4144 7.13853L16.8922 6.6163L16.3994 7.10907L16.9217 7.6313C16.9794 7.68907 17.0089 7.7763 17.0089 7.86352V12.4739C16.0245 12.3278 15.3856 11.5451 15.3278 10.2401Z" fill="#324C3D"/>
</svg>
