<svg width="24" height="24" viewBox="0 0 24 24" fill="none" xmlns="http://www.w3.org/2000/svg">
<path d="M17.52 2.40002H16.08L15.4078 7.77554L9.67229 7.65554L10.3201 2.40002H8.8801L8.23229 7.63226L2.95229 7.51226L2.73666 8.92788L8.04115 9.04788L7.32115 14.7601L1.92018 14.6401L1.70456 16.0801L7.15232 16.2001L6.48013 21.6001H7.92013L8.59232 16.2246L14.3278 16.3446L13.68 21.6001H15.12L15.7678 16.3679L21.0478 16.4879L21.2635 15.0723L15.959 14.9523L16.679 9.24002L22.0799 9.36002L22.2956 7.94441L16.8478 7.82441L17.52 2.40002ZM14.52 14.9045L8.78448 14.7845L9.50448 9.07226L15.24 9.19226L14.52 14.9045Z" fill="#324C3D"/>
</svg>
