<svg width="19" height="19" viewBox="0 0 19 19" fill="none" xmlns="http://www.w3.org/2000/svg">
<path d="M15.77 15.7172H12.16V13.6025C12.4072 13.7192 12.6922 13.7769 12.9772 13.7769C14.1743 13.7769 15.1622 12.7869 15.1622 11.5454C15.1622 10.7109 14.6872 9.93472 13.9465 9.5664C13.6808 8.61592 12.8258 7.95572 11.8565 7.95572C10.8872 7.95572 10.0322 8.61514 9.76646 9.5664C9.0443 9.93476 8.55076 10.7109 8.55076 11.5454C8.55002 12.7869 9.51932 13.7769 10.735 13.7769C10.9628 13.7769 11.1907 13.7382 11.4 13.6601V15.7173H8.51219C8.34149 15.0382 7.75219 14.5531 7.03004 14.5531C6.68789 14.5531 6.36504 14.6698 6.11789 14.8639C6.00359 14.7282 5.85219 14.6115 5.70004 14.5144V9.44963C6.09934 9.37232 6.46004 9.17829 6.76434 8.88723C6.87864 8.90694 7.01149 8.92589 7.12504 8.92589C8.49289 8.92589 9.59504 7.80031 9.59504 6.40338C9.59504 5.89857 9.44289 5.39453 9.15789 4.9678C9.19574 4.79347 9.21503 4.63809 9.21503 4.46299C9.21503 3.27904 8.34073 2.28995 7.20065 2.15432C6.80209 1.43577 6.04209 0.970367 5.22503 0.970367C4.38934 0.970367 3.61003 1.43575 3.23003 2.19297C2.18503 2.42566 1.42503 3.3572 1.42503 4.46303C1.42503 4.63736 1.44433 4.81246 1.48218 4.96784C1.19718 5.39457 1.04503 5.87967 1.04503 6.40342C1.04503 7.80035 2.14718 8.92593 3.51503 8.92593H3.70503C4.04718 9.2367 4.48433 9.43074 4.94003 9.48833V14.2037C4.80718 14.184 4.69288 14.165 4.56003 14.165C3.57218 14.165 2.73573 14.8639 2.52722 15.8341C1.59578 16.1441 0.950068 17.0369 0.950068 18.0457C0.950068 18.2595 1.12077 18.4338 1.33007 18.4338H17.6701C17.8794 18.4338 18.0501 18.2595 18.0501 18.0457C18.0501 16.7647 17.0243 15.7172 15.77 15.7172ZM10.735 13.0006C9.9557 13.0006 9.31 12.3601 9.31 11.5453C9.31 10.9435 9.6707 10.4008 10.2222 10.187C10.355 10.1484 10.4315 10.0317 10.45 9.89599C10.5829 9.21685 11.1528 8.71204 11.8372 8.71204C12.5215 8.71204 13.11 9.21685 13.2243 9.89599C13.2436 10.0317 13.3386 10.1287 13.4522 10.187C14.0028 10.4008 14.3643 10.9435 14.3643 11.5453C14.3643 12.3412 13.7372 13.0006 12.9393 13.0006C12.635 13.0006 12.3693 12.9036 12.1222 12.7293V11.4483C12.1222 11.2345 11.9514 11.0602 11.7422 11.0602C11.5328 11.0602 11.3622 11.2346 11.3622 11.4483V12.8263C11.1907 12.9423 10.9628 13.0006 10.735 13.0006ZM4.12281 8.24665C4.04711 8.16934 3.95211 8.12993 3.83781 8.12993H3.78066C3.68566 8.14963 3.59066 8.14963 3.51497 8.14963C2.56497 8.14963 1.80497 7.37348 1.80497 6.40328C1.80497 5.99549 1.93782 5.60741 2.18497 5.29742C2.26067 5.2004 2.29926 5.06473 2.24211 4.92905C2.20426 4.77367 2.16641 4.61828 2.16641 4.46367C2.16641 3.68751 2.73641 3.00838 3.49641 2.93107C3.62926 2.91137 3.74356 2.83405 3.80071 2.69838C4.04787 2.11626 4.58002 1.7479 5.20641 1.7479C5.81426 1.7479 6.36571 2.11626 6.59356 2.67944C6.65071 2.81512 6.78356 2.91214 6.93571 2.91214C7.75287 2.93184 8.43641 3.61099 8.43641 4.46445C8.43641 4.61983 8.41711 4.77522 8.36071 4.92983C8.32285 5.04656 8.34141 5.18224 8.41785 5.29819C8.66501 5.60897 8.79786 5.99704 8.79786 6.40406C8.79786 7.37426 8.03785 8.15041 7.08785 8.15041C6.955 8.15041 6.82216 8.1307 6.68855 8.09205C6.5557 8.05339 6.40355 8.11175 6.30855 8.20877C6.11855 8.40281 5.90925 8.5582 5.66285 8.6355V7.37425L6.3657 6.65646C6.51785 6.50108 6.51785 6.26838 6.3657 6.113C6.21355 5.95762 5.9857 5.95762 5.83355 6.113L5.31996 6.67464L4.78781 6.13118C4.63566 5.9758 4.40781 5.9758 4.25566 6.13118C4.10351 6.28656 4.10351 6.51926 4.25566 6.67464L4.95851 7.39243V8.71205C4.63566 8.63474 4.35066 8.47935 4.12281 8.24665ZM1.74781 17.6575C1.89996 17.0951 2.33711 16.6487 2.92566 16.532C3.09636 16.4933 3.21066 16.3576 3.22996 16.1825C3.28711 15.4837 3.85711 14.941 4.55996 14.941C4.74996 14.941 4.92066 14.9797 5.09211 15.0577C5.12997 15.0774 5.16782 15.0964 5.20641 15.1161C5.43426 15.2518 5.60571 15.4269 5.73856 15.6596C5.79571 15.7763 5.92856 15.8536 6.06141 15.8536C6.19426 15.8536 6.32711 15.7952 6.40356 15.6793C6.53641 15.4466 6.78356 15.3298 7.04926 15.3298C7.46711 15.3298 7.80926 15.6793 7.80926 16.106C7.80926 16.3197 7.97996 16.4941 8.18926 16.4941H15.7893C16.4921 16.4941 17.1 16.9792 17.2714 17.6583L1.74781 17.6575Z" fill="#324C3D"/>
<path d="M11.97 3.49271C12.2928 3.49271 12.54 3.74511 12.54 4.07483C12.54 4.28858 12.7107 4.4629 12.92 4.4629C13.1293 4.4629 13.3 4.28857 13.3 4.07483C13.3 3.74511 13.5472 3.49271 13.87 3.49271C14.0793 3.49271 14.25 3.31838 14.25 3.10463C14.25 2.89089 14.0793 2.71655 13.87 2.71655C13.49 2.71655 13.1672 2.87194 12.92 3.12435C12.6728 2.87194 12.35 2.71655 11.97 2.71655C11.7607 2.71655 11.59 2.89089 11.59 3.10463C11.59 3.31838 11.7607 3.49271 11.97 3.49271Z" fill="#324C3D"/>
<path d="M15.39 6.40329C15.7129 6.40329 15.96 6.6557 15.96 6.98541C15.96 7.19916 16.1307 7.37349 16.34 7.37349C16.5493 7.37349 16.72 7.19915 16.72 6.98541C16.72 6.6557 16.9672 6.40329 17.29 6.40329C17.4993 6.40329 17.67 6.22896 17.67 6.01521C17.67 5.80147 17.4993 5.62714 17.29 5.62714C16.91 5.62714 16.5872 5.78252 16.34 6.03493C16.0929 5.78252 15.77 5.62714 15.39 5.62714C15.1807 5.62714 15.01 5.80147 15.01 6.01521C15.01 6.22896 15.1807 6.40329 15.39 6.40329Z" fill="#324C3D"/>
</svg>
