<svg width="21" height="27" viewBox="0 0 21 27" fill="none" xmlns="http://www.w3.org/2000/svg">
<path fill-rule="evenodd" clip-rule="evenodd" d="M18.5066 22.2577H2.4931C2.36849 22.2577 2.2688 22.1569 2.2688 22.0334V10.1785C2.2688 10.055 2.36849 9.95422 2.4931 9.95422C2.61771 9.95422 2.7174 10.055 2.7174 10.1785V21.809H18.2811V10.1785C18.2811 10.055 18.3819 9.95422 18.5054 9.95422C18.6289 9.95422 18.7297 10.055 18.7297 10.1785V22.0334C18.7297 22.1569 18.6289 22.2577 18.5054 22.2577H18.5066Z" fill="#324C3D"/>
<path fill-rule="evenodd" clip-rule="evenodd" d="M1.04107 10.5002L1.36053 10.8673L10.3529 3.0419C10.4367 2.96827 10.5624 2.96827 10.6474 3.0419L19.6397 10.8673L19.9592 10.5002L10.5002 2.26685L1.04014 10.5002H1.04107ZM1.33899 11.4088C1.27555 11.4088 1.21325 11.3827 1.16906 11.3317L0.553945 10.626C0.514297 10.5807 0.495041 10.5229 0.498437 10.4629C0.502968 10.4028 0.530157 10.3473 0.575466 10.3088L10.3528 1.80135C10.4366 1.72772 10.5624 1.72772 10.6473 1.80135L20.4235 10.3088C20.4688 10.3484 20.496 10.4039 20.5006 10.4629C20.5051 10.5218 20.4847 10.5807 20.4451 10.626L19.8311 11.3317C19.7495 11.4257 19.6079 11.4348 19.5139 11.3544L10.5001 3.50959L1.48514 11.3544C1.44323 11.3918 1.38999 11.4099 1.33788 11.4099L1.33899 11.4088Z" fill="#324C3D"/>
<path fill-rule="evenodd" clip-rule="evenodd" d="M10.5 5.98495C9.56429 5.98495 8.80417 6.74507 8.80417 7.68078C8.80417 8.61536 9.56429 9.37548 10.5 9.37548C11.4346 9.37548 12.1947 8.61536 12.1947 7.68078C12.1947 6.7462 11.4346 5.98495 10.5 5.98495ZM10.5 9.82397C9.31735 9.82397 8.3556 8.86221 8.3556 7.67956C8.3556 6.49691 9.31735 5.53516 10.5 5.53516C11.6826 5.53516 12.6444 6.49691 12.6444 7.67956C12.6444 8.86221 11.6826 9.82397 10.5011 9.82397H10.5Z" fill="#324C3D"/>
<path fill-rule="evenodd" clip-rule="evenodd" d="M10.5 9.82396C10.3754 9.82396 10.2757 9.72314 10.2757 9.59966V5.76064C10.2757 5.63717 10.3765 5.53635 10.5 5.53635C10.6246 5.53635 10.7243 5.63717 10.7243 5.76064V9.59966C10.7243 9.72314 10.6235 9.82396 10.5 9.82396Z" fill="#324C3D"/>
<path fill-rule="evenodd" clip-rule="evenodd" d="M12.4201 7.90505H8.58107C8.45759 7.90505 8.35677 7.80423 8.35677 7.68075C8.35677 7.55727 8.45759 7.45645 8.58107 7.45645H12.4201C12.5436 7.45645 12.6444 7.55727 12.6444 7.68075C12.6444 7.80423 12.5436 7.90505 12.4201 7.90505Z" fill="#324C3D"/>
<path fill-rule="evenodd" clip-rule="evenodd" d="M12.8473 22.2577C12.7238 22.2577 12.623 22.1569 12.623 22.0334V17.3548C12.623 16.1846 11.6703 15.2331 10.5001 15.2331C9.3299 15.2331 8.37832 16.1846 8.37832 17.3548V22.0334C8.37832 22.1569 8.2775 22.2577 8.15402 22.2577C8.03055 22.2577 7.92972 22.1569 7.92972 22.0334V17.3548C7.92972 15.9366 9.08294 14.7834 10.5012 14.7834C11.9184 14.7834 13.0727 15.9366 13.0727 17.3548V22.0334C13.0727 22.1569 12.9719 22.2577 12.8484 22.2577H12.8473Z" fill="#324C3D"/>
<path fill-rule="evenodd" clip-rule="evenodd" d="M7.04726 14.9749C6.92378 14.9749 6.82296 14.8741 6.82296 14.7506V11.9775H4.27525V14.7506C4.27525 14.8741 4.17443 14.9749 4.05096 14.9749C3.92748 14.9749 3.82666 14.8741 3.82666 14.7506V11.7532C3.82666 11.6297 3.92748 11.5289 4.05096 11.5289H7.04724C7.17071 11.5289 7.27153 11.6297 7.27153 11.7532V14.7506C7.27153 14.8741 7.17074 14.9749 7.04726 14.9749Z" fill="#324C3D"/>
<path fill-rule="evenodd" clip-rule="evenodd" d="M7.63277 14.9749H3.46518C3.3417 14.9749 3.24088 14.8741 3.24088 14.7506C3.24088 14.626 3.3417 14.5263 3.46518 14.5263H7.63277C7.75625 14.5263 7.85707 14.626 7.85707 14.7506C7.85707 14.8741 7.75625 14.9749 7.63277 14.9749Z" fill="#324C3D"/>
<path fill-rule="evenodd" clip-rule="evenodd" d="M5.54854 14.9749C5.42506 14.9749 5.32424 14.8741 5.32424 14.7506V11.7532C5.32424 11.6297 5.42506 11.5289 5.54854 11.5289C5.67202 11.5289 5.77284 11.6297 5.77284 11.7532V14.7506C5.77284 14.8741 5.67202 14.9749 5.54854 14.9749Z" fill="#324C3D"/>
<path fill-rule="evenodd" clip-rule="evenodd" d="M7.04726 13.8921H4.05098C3.9275 13.8921 3.82668 13.7913 3.82668 13.6678C3.82668 13.5432 3.9275 13.4435 4.05098 13.4435H7.04726C7.17074 13.4435 7.27156 13.5432 7.27156 13.6678C7.27156 13.7913 7.17074 13.8921 7.04726 13.8921Z" fill="#324C3D"/>
<path fill-rule="evenodd" clip-rule="evenodd" d="M16.9502 14.9749C16.8267 14.9749 16.7259 14.8741 16.7259 14.7506V11.9775H14.1782V14.7506C14.1782 14.8741 14.0785 14.9749 13.9539 14.9749C13.8304 14.9749 13.7296 14.8741 13.7296 14.7506V11.7532C13.7296 11.6297 13.8293 11.5289 13.9539 11.5289H16.9513C17.0759 11.5289 17.1756 11.6297 17.1756 11.7532V14.7506C17.1756 14.8741 17.0748 14.9749 16.9513 14.9749H16.9502Z" fill="#324C3D"/>
<path fill-rule="evenodd" clip-rule="evenodd" d="M17.5348 14.9749H13.3684C13.2449 14.9749 13.1441 14.8741 13.1441 14.7506C13.1441 14.626 13.2449 14.5263 13.3684 14.5263H17.5348C17.6594 14.5263 17.7591 14.626 17.7591 14.7506C17.7591 14.8741 17.6594 14.9749 17.5348 14.9749Z" fill="#324C3D"/>
<path fill-rule="evenodd" clip-rule="evenodd" d="M15.4515 14.9749C15.3269 14.9749 15.2272 14.8741 15.2272 14.7506V11.7532C15.2272 11.6297 15.3269 11.5289 15.4515 11.5289C15.5749 11.5289 15.6758 11.6297 15.6758 11.7532V14.7506C15.6758 14.8741 15.5761 14.9749 15.4515 14.9749Z" fill="#324C3D"/>
<path fill-rule="evenodd" clip-rule="evenodd" d="M9.11902 19.6364C8.99554 19.6364 8.89472 19.5356 8.89472 19.4121V18.3348C8.89472 18.2114 8.99554 18.1105 9.11902 18.1105C9.24363 18.1105 9.34332 18.2114 9.34332 18.3348V19.4121C9.34332 19.5356 9.2425 19.6364 9.11902 19.6364Z" fill="#324C3D"/>
<path fill-rule="evenodd" clip-rule="evenodd" d="M7.43905 23.6059C7.31444 23.6059 7.21475 23.5051 7.21475 23.3816V22.0336C7.21475 21.9101 7.31557 21.8093 7.43905 21.8093C7.56366 21.8093 7.66335 21.9101 7.66335 22.0336V23.3816C7.66335 23.5051 7.56253 23.6059 7.43905 23.6059ZM13.5688 23.6059C13.4453 23.6059 13.3445 23.5051 13.3445 23.3816V22.0336C13.3445 21.9101 13.4453 21.8093 13.5688 21.8093C13.6934 21.8093 13.7931 21.9101 13.7931 22.0336V23.3816C13.7931 23.5051 13.6923 23.6059 13.5688 23.6059Z" fill="#324C3D"/>
<path fill-rule="evenodd" clip-rule="evenodd" d="M14.143 24.9539C14.0195 24.9539 13.9187 24.853 13.9187 24.7296V23.6069H7.09121V24.7296C7.09121 24.853 6.99039 24.9539 6.86692 24.9539C6.74344 24.9539 6.64262 24.853 6.64262 24.7296V23.3827C6.64262 23.258 6.74344 23.1584 6.86692 23.1584H14.1442C14.2677 23.1584 14.3685 23.258 14.3685 23.3827V24.7296C14.3685 24.853 14.2677 24.9539 14.1442 24.9539H14.143Z" fill="#324C3D"/>
<path fill-rule="evenodd" clip-rule="evenodd" d="M6.39012 25.8523H14.6177V24.9539H6.39012V25.8523ZM14.8422 26.3009H6.16479C6.04131 26.3009 5.94049 26.2001 5.94049 26.0766V24.7297C5.94049 24.6062 6.04131 24.5054 6.16479 24.5054H14.8422C14.9656 24.5054 15.0665 24.6062 15.0665 24.7297V26.0766C15.0665 26.2001 14.9656 26.3009 14.8422 26.3009Z" fill="#324C3D"/>
<path fill-rule="evenodd" clip-rule="evenodd" d="M4.05533 7.80296C3.93185 7.80296 3.83103 7.70214 3.83103 7.57866V5.86926C3.83103 5.74578 3.93072 5.64496 4.05533 5.64496C4.17994 5.64496 4.27963 5.74578 4.27963 5.86926V7.57866C4.27963 7.70214 4.17994 7.80296 4.05533 7.80296ZM1.76024 9.80011C1.63676 9.80011 1.53594 9.69928 1.53594 9.57581V5.86816C1.53594 5.74468 1.63676 5.64386 1.76024 5.64386C1.88485 5.64386 1.98454 5.74468 1.98454 5.86816V9.57581C1.98454 9.69928 1.88372 9.80011 1.76024 9.80011Z" fill="#324C3D"/>
<path fill-rule="evenodd" clip-rule="evenodd" d="M1.37979 4.50217V5.3903C1.37979 5.53077 1.4942 5.64518 1.63467 5.64518H4.18122C4.32282 5.64518 4.43724 5.53077 4.43724 5.3903V4.50217H1.37979ZM4.18125 6.09378H1.6347C1.24616 6.09378 0.930087 5.77774 0.930087 5.38917V4.27676C0.930087 4.15328 1.03091 4.05246 1.15438 4.05246H4.66049C4.78396 4.05246 4.88478 4.15328 4.88478 4.27676V5.38917C4.88478 5.77771 4.56874 6.09378 4.18017 6.09378H4.18125Z" fill="#324C3D"/>
<path fill-rule="evenodd" clip-rule="evenodd" d="M1.91774 3.73396C1.8645 3.73396 1.81012 3.71471 1.76708 3.67506C1.67532 3.59236 1.66852 3.44963 1.75235 3.35786C1.79993 3.30462 2.20887 2.8175 1.76594 2.37458C1.16216 1.7708 1.50087 1.0628 1.76368 0.771667C1.84637 0.679908 1.98911 0.673113 2.08088 0.75694C2.17264 0.839637 2.17943 0.981238 2.09674 1.07298C2.04803 1.12736 1.64022 1.61447 2.08315 2.05626C2.68693 2.66004 2.34822 3.36804 2.08541 3.65917C2.04123 3.70788 1.98006 3.73281 1.91889 3.73281L1.91774 3.73396Z" fill="#324C3D"/>
<path fill-rule="evenodd" clip-rule="evenodd" d="M3.88655 3.73396C3.83331 3.73396 3.77893 3.71471 3.73589 3.67506C3.64413 3.59236 3.63733 3.44963 3.72116 3.35786C3.76874 3.30462 4.17768 2.8175 3.73475 2.37458C3.13097 1.7708 3.46968 1.0628 3.73249 0.771667C3.81518 0.679908 3.95792 0.673113 4.04969 0.75694C4.14145 0.839637 4.14824 0.981238 4.06555 1.07298C4.01797 1.12736 3.60903 1.61447 4.05196 2.05626C4.65574 2.66004 4.31703 3.36804 4.05422 3.65917C4.01004 3.70788 3.94887 3.73281 3.8877 3.73281L3.88655 3.73396Z" fill="#324C3D"/>
<path fill-rule="evenodd" clip-rule="evenodd" d="M16.9502 13.8921H13.9527C13.8281 13.8921 13.7284 13.7913 13.7284 13.6678C13.7284 13.5432 13.8281 13.4435 13.9527 13.4435H16.9502C17.0748 13.4435 17.1745 13.5432 17.1745 13.6678C17.1745 13.7913 17.0737 13.8921 16.9502 13.8921Z" fill="#324C3D"/>
</svg>
