<svg width="28" height="28" viewBox="0 0 28 28" fill="none" xmlns="http://www.w3.org/2000/svg">
<path d="M26.5454 26.9937V6.83034H24.3032V7.72721C24.3032 8.21939 23.904 8.62407 23.4063 8.62407C22.9142 8.62407 22.5095 8.22485 22.5095 7.72721V6.83034H20.2673V10.8609H17.5767V4.58838H19.3704V0.109497H17.1282V1.00637C17.1282 1.49855 16.729 1.90323 16.2313 1.90323C15.7392 1.90323 15.3345 1.50401 15.3345 1.00637V0.109497H12.6438V1.00637C12.6438 1.49855 12.2446 1.90323 11.747 1.90323C11.2548 1.90323 10.8501 1.50401 10.8501 1.00637V0.109497H8.60793V4.58838H10.4017V10.8609H7.71103V6.83034H5.46885V7.72721C5.46885 8.21939 5.06962 8.62407 4.57198 8.62407C4.07979 8.62407 3.67511 8.22485 3.67511 7.72721V6.83034H1.43293V26.9937H0.109478V27.8906H27.8908V26.9937H26.5454ZM9.52112 3.69126V1.00611H9.96957C9.96957 1.99597 10.7735 2.79985 11.7633 2.79985C12.7532 2.79985 13.557 1.99594 13.557 1.00611H14.4539C14.4539 1.99597 15.2578 2.79985 16.2476 2.79985C17.2375 2.79985 18.0414 1.99594 18.0414 1.00611H18.4898V3.69675H9.52115L9.52112 3.69126ZM16.6905 4.58813V10.8607H11.3148V4.58813H16.6905ZM2.35144 7.72721H2.79989C2.79989 8.71706 3.60379 9.52094 4.59362 9.52094C5.58345 9.52094 6.38736 8.71703 6.38736 7.72721H6.83581V10.8663H2.35133L2.35144 7.72721ZM17.582 26.9937H10.418V22.5148C10.418 20.5406 12.0258 18.9328 14 18.9328C15.9742 18.9328 17.582 20.5406 17.582 22.5148V26.9937ZM25.6486 26.9937H18.4792V22.5148C18.4792 20.043 16.4667 18.036 14.0003 18.036C11.5284 18.036 9.5214 20.0485 9.5214 22.5148V26.9937H2.352V11.7578H25.6488L25.6486 26.9937ZM25.6486 10.861H21.1697V7.72189H21.6181C21.6181 8.71174 22.422 9.51562 23.4119 9.51562C24.4017 9.51562 25.2056 8.71171 25.2056 7.72189H25.654V10.861H25.6486Z" fill="#324C3D"/>
<path d="M7.27888 13.1031H3.69152V16.6852H7.27356V13.1031H7.27888ZM6.38201 15.7938H4.58827V14H6.38201V15.7938Z" fill="#324C3D"/>
<path d="M15.7937 13.1031H12.2116V16.6852H15.7937V13.1031ZM14.8968 15.7938H13.1031V14H14.8968V15.7938Z" fill="#324C3D"/>
<path d="M24.3085 13.1031H20.7264V16.6852H24.3085V13.1031ZM23.4116 15.7938H21.6179V14H23.4116V15.7938Z" fill="#324C3D"/>
</svg>
