<svg width="22" height="20" viewBox="0 0 22 20" fill="none" xmlns="http://www.w3.org/2000/svg">
<path d="M16.52 0.400002H15.08L14.4078 5.77552L8.67229 5.65552L9.3201 0.400002H7.8801L7.23229 5.63224L1.95229 5.51224L1.73666 6.92786L7.04114 7.04786L6.32114 12.7601L0.920182 12.6401L0.704556 14.0801L6.15232 14.2001L5.48012 19.6001H6.92012L7.59232 14.2246L13.3278 14.3446L12.68 19.6001H14.12L14.7678 14.3679L20.0478 14.4879L20.2635 13.0722L14.959 12.9522L15.679 7.24L21.0799 7.36L21.2956 5.94439L15.8478 5.82439L16.52 0.400002ZM13.52 12.9045L7.78448 12.7845L8.50448 7.07224L14.24 7.19224L13.52 12.9045Z" fill="#324C3D"/>
</svg>
