<svg width="26" height="24" viewBox="0 0 26 24" fill="none" xmlns="http://www.w3.org/2000/svg">
<path d="M13 7.2064C9.41888 7.2064 6.50368 10.1214 6.50368 13.7027C6.50368 17.2838 9.41869 20.199 13 20.199C16.5813 20.199 19.4963 17.284 19.4963 13.7027C19.4988 10.1216 16.5838 7.2064 13 7.2064ZM13 19.255C9.9375 19.255 7.44736 16.7651 7.44736 13.7024C7.44736 10.6399 9.93734 8.14976 13 8.14976C16.0627 8.14976 18.5526 10.6397 18.5526 13.7024C18.5526 16.7649 16.0627 19.255 13 19.255Z" fill="#324C3D"/>
<path d="M13.0064 9.3024C10.5814 9.3024 8.6064 11.2774 8.6064 13.7024C8.6064 16.1274 10.5814 18.1024 13.0064 18.1024C15.4314 18.1024 17.4064 16.1274 17.4064 13.7024C17.4064 11.2762 15.4326 9.3024 13.0064 9.3024ZM13.0064 17.1587C11.1027 17.1587 9.55008 15.61 9.55008 13.7024C9.55008 11.7987 11.0988 10.2499 13.0064 10.2499C14.9139 10.2499 16.4627 11.7987 16.4627 13.7024C16.459 15.6061 14.9102 17.1587 13.0064 17.1587Z" fill="#324C3D"/>
<path d="M23.3776 4.30752H18.504L17.1603 1.18752C17.0865 1.01502 16.914 0.902519 16.7252 0.902519H9.26893C9.08018 0.902519 8.90768 1.01502 8.83392 1.19002L7.49891 4.31002H6.52893V2.46004C6.52893 2.19754 6.31767 1.98628 6.05517 1.98628H3.73142C3.46892 1.98628 3.25766 2.19753 3.25766 2.46004V4.31002H2.61392C1.27891 4.31002 0.191422 5.39751 0.191422 6.73252V20.6775C0.191422 22.0125 1.27891 23.1 2.61392 23.1H23.3726C24.7076 23.1 25.7951 22.0125 25.7951 20.6775L25.7964 6.72996C25.8001 5.39495 24.7126 4.30752 23.3776 4.30752ZM9.58496 1.85002H16.4176L17.4764 4.31127L8.53267 4.31002L9.58496 1.85002ZM4.20992 2.93127H5.58617V4.30752H4.20992V2.93127ZM24.8525 20.6749C24.8525 21.4875 24.19 22.15 23.3775 22.15H2.62259C1.81008 22.15 1.14758 21.4875 1.14758 20.6749V6.72999C1.14758 5.91747 1.81008 5.25498 2.62259 5.25498H23.3775C24.19 5.25498 24.8525 5.91747 24.8525 6.72999V20.6749Z" fill="#324C3D"/>
</svg>
